<?xml version="1.0" encoding="UTF-8"?>
<svg width="250px" height="249px" viewBox="0 0 250 249" version="1.1" xmlns="http://www.w3.org/2000/svg" xmlns:xlink="http://www.w3.org/1999/xlink">
    <!-- Generator: Sketch 53.2 (72643) - https://sketchapp.com -->
    <title>Spring logo</title>
    <desc>Created with Sketch.</desc>
    <g id="Web" stroke="none" stroke-width="1" fill="none" fill-rule="evenodd">
        <g id="Landing" transform="translate(-835.000000, -239.000000)" fill="#FFFFFF" fill-rule="nonzero">
            <g id="Landing-Page" transform="translate(-1.000000, -1105.000000)">
                <g id="Top" transform="translate(0.500000, 0.000000)">
                    <path d="M1062.44569,1356.96706 C1058.94346,1365.33082 1054.5008,1373.27314 1049.15016,1380.56711 C1025.73704,1357.16157 993.957465,1344 960.848335,1344 C892.360105,1344 836,1400.40672 836,1468.97006 C836,1503.17068 850.008956,1535.91251 874.784054,1559.51256 L879.38885,1563.59719 C901.893978,1582.56152 930.398312,1593 959.810634,1593 C1024.92634,1593 1079.66504,1541.97461 1084.30226,1476.9448 C1087.70721,1445.11066 1078.36791,1404.84794 1062.44569,1356.96706 Z M888.003706,1558.67273 C886.307586,1560.77273 883.708694,1562 881.000375,1562 C876.048801,1562 872,1557.93636 872,1553 C872,1548.06364 876.076157,1544 881.000375,1544 C883.052132,1544 885.076532,1544.70909 886.663224,1546.01818 C890.520528,1549.12727 891.122376,1554.82727 888.003706,1558.67273 Z M923.933552,1546.32673 C923.933552,1546.32673 916.452787,1546.77723 908.939638,1548 C908.939638,1548 911.757069,1546.80941 915.416491,1545.42574 C944.983323,1535.19307 958.973324,1533.19802 976.94659,1524.02723 C1010.78814,1506.90842 1044.24109,1469.45297 1051.2037,1430.48515 C1038.31477,1467.97277 999.259347,1500.18317 963.669042,1513.2797 C939.283693,1522.22525 895.241095,1530.91337 895.241095,1530.91337 L893.459961,1529.9802 C863.472133,1515.46782 862.565374,1450.88614 917.068088,1430.03465 C940.93529,1420.89604 963.766195,1425.91584 989.544068,1419.80198 C1017.07069,1413.30198 1048.90442,1392.77228 1061.85813,1366 C1076.36628,1408.82921 1093.82139,1475.88861 1062.5382,1517.33416 C1031.77315,1558.10396 966.065478,1544.36386 923.933552,1546.32673 Z" id="Spring-logo"></path>
                </g>
            </g>
        </g>
    </g>
</svg>